<?xml version="1.0" encoding="utf-8"?>
<!-- Generator: Adobe Illustrator 19.0.0, SVG Export Plug-In . SVG Version: 6.00 Build 0)  -->
<svg version="1.1" id="Layer_1" xmlns="http://www.w3.org/2000/svg" xmlns:xlink="http://www.w3.org/1999/xlink" x="0px" y="0px"
	 viewBox="0 -0.6 76.6 76.6" style="enable-background:new 0 -0.6 76.6 76.6;" xml:space="preserve">
<style type="text/css">
	.st0{display:none;}
	.st1{display:inline;fill:none;}
	.st2{display:inline;fill:#D1D3D4;}
	.st3{fill:none;}
	.st4{fill:#D1D3D4;}
	.st5{display:inline;}
</style>
<g id="Layer_1_1_" class="st0">
	<rect id="XMLID_1_" y="-0.6" class="st1" width="76.6" height="76.6"/>
</g>
<g id="Layer_2" class="st0">
	<path id="XMLID_40_" class="st2" d="M59.2,64H17.4c-0.3,0-0.5-0.1-0.7-0.3c-5.8-5.8-9-13.5-9-21.7c0-16.9,13.7-30.6,30.6-30.6
		S69,25.1,69,42c0,8.2-3.2,15.9-9,21.7C59.7,63.9,59.5,64,59.2,64z M17.8,62h41c5.3-5.4,8.2-12.5,8.2-20c0-15.8-12.9-28.6-28.7-28.6
		S9.7,26.2,9.7,42C9.7,49.6,12.6,56.7,17.8,62z"/>
	<path id="XMLID_39_" class="st2" d="M14.7,42.7h-3.5c-0.6,0-1-0.4-1-1s0.4-1,1-1h3.5c0.6,0,1,0.4,1,1S15.2,42.7,14.7,42.7z"/>
	<path id="XMLID_38_" class="st2" d="M38.6,19.4c-0.6,0-1-0.4-1-1v-3.5c0-0.6,0.4-1,1-1s1,0.4,1,1v3.5
		C39.6,18.9,39.2,19.4,38.6,19.4z"/>
	<path id="XMLID_37_" class="st2" d="M21.8,26c-0.3,0-0.5-0.1-0.7-0.3l-2.5-2.5c-0.4-0.4-0.4-1,0-1.4s1-0.4,1.4,0l2.5,2.5
		c0.4,0.4,0.4,1,0,1.4C22.3,25.9,22,26,21.8,26z"/>
	<path id="XMLID_36_" class="st2" d="M65.5,42.8H62c-0.6,0-1-0.4-1-1s0.4-1,1-1h3.5c0.6,0,1,0.4,1,1S66.1,42.8,65.5,42.8z"/>
	<path id="XMLID_47_" class="st2" d="M54.7,26c-0.3,0-0.5-0.1-0.7-0.3c-0.4-0.4-0.4-1,0-1.4l2.5-2.5c0.4-0.4,1-0.4,1.4,0
		s0.4,1,0,1.4l-2.5,2.5C55.2,25.9,55,26,54.7,26z"/>
	<path id="XMLID_29_" class="st2" d="M50.9,52.3H25.7c-0.8,0-1.5,0.7-1.5,1.5v4.7c0,0.8,0.7,1.5,1.5,1.5h25.2c0.8,0,1.5-0.7,1.5-1.5
		v-4.7C52.4,53,51.8,52.3,50.9,52.3z"/>
	<path id="XMLID_41_" class="st2" d="M52.3,27l-12.5,9.9c-0.4-0.1-0.9-0.2-1.4-0.2c-2.8,0-5.1,2.3-5.1,5.1s2.3,5.1,5.1,5.1
		s5.1-2.3,5.1-5.1c0-1-0.3-1.8-0.7-2.6L52.3,27z M38.5,44.9c-1.7,0-3.1-1.4-3.1-3.1s1.4-3.1,3.1-3.1c1.7,0,3.1,1.4,3.1,3.1
		S40.2,44.9,38.5,44.9z"/>
	<rect id="XMLID_28_" y="-0.6" class="st1" width="76.6" height="76.6"/>
</g>
<g id="Layer_3">
	<rect id="XMLID_30_" y="-0.6" class="st3" width="76.6" height="76.6"/>
	<path id="XMLID_14_" class="st4" d="M59.7,26.9c-2.3-9.5-10.8-16.6-20.9-16.6c-9.8,0-18.1,6.6-20.6,15.7
		c-5.6,3.9-9.3,10.3-9.3,17.7c0,11.8,9.6,21.4,21.4,21.4c2.8,0,5.5-0.6,8-1.6c2.5,1,5.2,1.6,8,1.6c11.8,0,21.4-9.6,21.4-21.4
		C67.7,36.9,64.6,30.8,59.7,26.9z M58.2,31.8c0,5.8-2.6,11.1-6.7,14.6c0.1-0.9,0.2-1.8,0.2-2.8c0-8-4.4-15-10.9-18.7
		c1.7-0.5,3.6-0.8,5.4-0.8c4.3,0,8.3,1.4,11.6,3.9C58.1,29.3,58.2,30.5,58.2,31.8z M38.8,51.2c-4.3,0-8.3-1.4-11.6-3.9
		c-0.2-1.2-0.4-2.4-0.4-3.7c0-7.9,4.7-14.6,11.4-17.7c6.7,3.1,11.4,9.8,11.4,17.7c0,1.6-0.2,3.1-0.6,4.5
		C46.2,50.1,42.6,51.2,38.8,51.2z M48.3,51c-1.9,4.6-5.5,8.3-10,10.4c-4.7-2.1-8.4-6.1-10.2-11c3.2,1.8,6.8,2.9,10.7,2.9
		C42.2,53.2,45.4,52.4,48.3,51z M19.9,27.2c3-1.9,6.6-3.1,10.4-3.1c1.9,0,3.7,0.3,5.4,0.8c-6.5,3.7-10.9,10.7-10.9,18.7
		c0,0.6,0,1.2,0.1,1.8c-3.5-3.5-5.6-8.3-5.6-13.6C19.3,30.2,19.5,28.7,19.9,27.2z M38.8,12.3c8.4,0,15.5,5.3,18.2,12.8
		c-3.2-1.8-6.8-2.9-10.7-2.9c-2.8,0-5.5,0.6-8,1.6c-2.5-1-5.2-1.6-8-1.6c-3.4,0-6.7,0.8-9.5,2.3C23.7,17.3,30.7,12.3,38.8,12.3z
		 M30.3,63.1c-10.7,0-19.4-8.7-19.4-19.4c0-5.8,2.6-11.1,6.7-14.6c-0.1,0.9-0.2,1.8-0.2,2.8c0,6.8,3.2,12.8,8.1,16.8
		c1.3,5.7,5.1,10.7,10.3,13.6C34,62.8,32.2,63.1,30.3,63.1z M46.3,63.1c-1.9,0-3.7-0.3-5.4-0.8c4.9-2.8,8.5-7.4,10.1-12.9
		c5.6-3.9,9.3-10.3,9.3-17.7c0-0.6,0-1.2-0.1-1.8c3.5,3.5,5.6,8.3,5.6,13.6C65.7,54.4,57,63.1,46.3,63.1z"/>
</g>
<g id="Layer_4" class="st0">
	<rect id="XMLID_33_" x="-0.1" y="-0.6" class="st1" width="76.6" height="76.6"/>
	<path id="XMLID_58_" class="st2" d="M66.9,25H59c-0.6,0-1,0.4-1,1v4.6h-3.8l-7.5-7.5c-0.2-0.2-0.4-0.3-0.7-0.3h-8.3v-4.3h9.9
		c0.6,0,1-0.4,1-1s-0.4-1-1-1H25.7c-0.6,0-1,0.4-1,1s0.4,1,1,1h9.9v4.3h-6.5c-0.3,0-0.5,0.1-0.7,0.3l-7.5,7.5h-4.5c-0.6,0-1,0.4-1,1
		v9h-4.9V25.4c0-0.6-0.4-1-1-1s-1,0.4-1,1v32.5c0,0.6,0.4,1,1,1s1-0.4,1-1V42.6h4.9V51c0,0.6,0.4,1,1,1h9.3l5.3,6.1
		c0.2,0.2,0.5,0.3,0.8,0.3h16.4c0.3,0,0.5-0.1,0.7-0.3L55,52h2.9v2.1c0,0.6,0.4,1,1,1h7.9c0.6,0,1-0.4,1-1V26
		C67.9,25.4,67.4,25,66.9,25z M65.9,53.1H60V51c0-0.6-0.4-1-1-1h-4.4c-0.3,0-0.5,0.1-0.7,0.3l-6.1,6.1H32.3l-5.3-6
		c-0.2-0.2-0.5-0.3-0.8-0.3h-8.8V32.6h3.9c0.3,0,0.5-0.1,0.7-0.3l7.5-7.5h15.9l7.5,7.5c0.2,0.2,0.4,0.3,0.7,0.3h5.2c0.6,0,1-0.4,1-1
		V27h5.9v26.1H65.9z"/>
</g>
<g id="Layer_5" class="st0">
	<g id="XMLID_83_" class="st5">
		<g id="XMLID_43_">
			<path id="XMLID_60_" class="st4" d="M68.1,54.3V37c0-0.6-0.4-1-1-1H49V17.1c2.2-0.5,3.9-2.5,3.9-4.8c0-2.7-2.2-4.9-4.9-4.9
				s-4.9,2.2-4.9,4.9c0,2.4,1.7,4.4,3.9,4.8V36H29.7V17.1c2.2-0.5,3.9-2.5,3.9-4.8c0-2.7-2.2-4.9-4.9-4.9s-4.9,2.2-4.9,4.9
				c0,2.4,1.7,4.4,3.9,4.8V36H10.4V17.1c2.2-0.5,3.9-2.5,3.9-4.8c0-2.7-2.2-4.9-4.9-4.9s-4.9,2.2-4.9,4.9c0,2.4,1.7,4.4,3.9,4.8
				v41.3c-2.2,0.5-3.9,2.5-3.9,4.8c0,2.7,2.2,4.9,4.9,4.9s4.9-2.2,4.9-4.9c0-2.4-1.7-4.4-3.9-4.8V38h17.3v20.4
				c-2.2,0.5-3.9,2.5-3.9,4.8c0,2.7,2.2,4.9,4.9,4.9s4.9-2.2,4.9-4.9c0-2.4-1.7-4.4-3.9-4.8V38H47v20.4c-2.2,0.5-3.9,2.5-3.9,4.8
				c0,2.7,2.2,4.9,4.9,4.9s4.9-2.2,4.9-4.9c0-2.4-1.7-4.4-3.9-4.8V38h17.1v16.4c-1.6,0.5-2.8,2-2.8,3.7c0,2.2,1.8,3.9,3.9,3.9
				c2.2,0,3.9-1.8,3.9-3.9C71.2,56.3,69.9,54.7,68.1,54.3z M12.3,63.2c0,1.6-1.3,2.9-2.9,2.9s-2.9-1.3-2.9-2.9s1.3-2.9,2.9-2.9
				S12.3,61.5,12.3,63.2z M9.4,15.2c-1.6,0-2.9-1.3-2.9-2.9s1.3-2.9,2.9-2.9s2.9,1.3,2.9,2.9S11,15.2,9.4,15.2z M31.6,63.2
				c0,1.6-1.3,2.9-2.9,2.9s-2.9-1.3-2.9-2.9s1.3-2.9,2.9-2.9S31.6,61.5,31.6,63.2z M28.7,15.2c-1.6,0-2.9-1.3-2.9-2.9
				s1.3-2.9,2.9-2.9s2.9,1.3,2.9,2.9S30.3,15.2,28.7,15.2z M51,63.2c0,1.6-1.3,2.9-2.9,2.9c-1.6,0-2.9-1.3-2.9-2.9s1.3-2.9,2.9-2.9
				C49.6,60.2,51,61.5,51,63.2z M48,15.2c-1.6,0-2.9-1.3-2.9-2.9s1.3-2.9,2.9-2.9c1.6,0,2.9,1.3,2.9,2.9S49.6,15.2,48,15.2z"/>
			<path id="XMLID_79_" class="st4" d="M59.4,33.2c0.6,0,1-0.4,1-1v-4.5h3c0,0,0.2,0,0.3,0c0,0.2,2.7,5,2.7,5
				c0.2,0.3,0.5,0.5,0.9,0.5c0.2,0,0.3,0,0.5-0.1c0.5-0.3,0.6-0.9,0.4-1.4l-2.5-4.4c0.4-0.2,0.8-0.4,1.2-0.8
				c0.8-0.7,1.1-1.7,1.1-2.9c0-1.4-0.4-2.3-1.1-3c-0.8-0.8-2.6-0.8-2.6-0.8h-4.8c-0.6,0-1,0.4-1,1v11.3
				C58.4,32.7,58.9,33.2,59.4,33.2z M60.4,21.9h3.9c0.1,0,0.8,0,1.2,0.3c0.4,0.3,0.5,1,0.5,1.5c0,0.6-0.2,1.1-0.5,1.4
				c-0.6,0.5-1.6,0.6-2,0.6h-3.1V21.9z"/>
		</g>
		<rect id="XMLID_34_" y="-0.6" class="st3" width="76.6" height="76.6"/>
	</g>
</g>
<g id="Layer_6" class="st0">
	<g id="XMLID_42_" class="st5">
		<path id="XMLID_72_" class="st4" d="M67.8,64.7H54.7c0-0.1,0-0.1,0-0.2v-31c1.8,0.2,2.1,1.6,2.1,1.9v16.2c0,1.7,1.1,3,2.5,3h1.5
			c1.4,0,2.5-1.3,2.5-3V23.1c0-1.9-1.3-3.9-3.7-3.9l0,0c-0.7-0.4-1.7-0.6-3.1-0.1c-0.3,0.1-0.4,0.4-0.3,0.6c0.1,0.3,0.4,0.4,0.6,0.3
			c0.8-0.3,1.3-0.3,1.8-0.2c0,0.1-0.1,0.2-0.1,0.3c0,0.5,0.4,0.9,0.9,1v0.1c0,0.5,0,1.2,0.5,1.8c0.3,0.3,0.7,0.5,1.3,0.5v28.1
			c0,0.6-0.3,1-0.5,1h-1.5c-0.1,0-0.5-0.4-0.5-1V35.3c-0.1-1.3-1.1-3.6-4.1-3.8v-1.8c0-1.7-1.3-3-3-3H23.3c-1.7,0-3,1.3-3,3v34.8
			c0,0.1,0,0.1,0,0.2H8.6c-0.6,0-1,0.4-1,1s0.4,1,1,1h59.2c0.6,0,1-0.4,1-1S68.4,64.7,67.8,64.7z M60.6,22.3
			c-0.2-0.2-0.2-0.5-0.2-0.8c0.4,0.3,0.6,0.7,0.7,1C60.9,22.5,60.7,22.4,60.6,22.3z M22.3,64.5V29.8c0-0.6,0.4-1,1-1h28.5
			c0.6,0,1,0.4,1,1v34.8c0,0.1,0,0.1,0,0.2H22.2C22.3,64.6,22.3,64.6,22.3,64.5z"/>
		<path id="XMLID_74_" class="st4" d="M53.5,24.5H22.3c-1.1,0-2-0.9-2-2V10.7c0-1.1,0.9-2,2-2h31.3c1.1,0,2,0.9,2,2v11.7
			C55.5,23.6,54.6,24.5,53.5,24.5z M53.5,22.5v1V22.5L53.5,22.5L53.5,22.5z M22.3,10.7v11.7h31.2V10.7H22.3z"/>
		<path id="XMLID_52_" class="st4" d="M48.1,31.5H26.9c-0.8,0-1.5,0.7-1.5,1.5v4.7c0,0.8,0.7,1.5,1.5,1.5h21.2
			c0.8,0,1.5-0.7,1.5-1.5V33C49.6,32.2,48.9,31.5,48.1,31.5z"/>
	</g>
	<rect id="XMLID_59_" x="-0.1" y="-0.6" class="st1" width="76.6" height="76.6"/>
</g>
<g id="Layer_7" class="st0">
	<rect id="XMLID_46_" y="-0.6" class="st1" width="76.6" height="76.6"/>
	<g id="XMLID_82_" class="st5">
		<path id="XMLID_88_" class="st4" d="M38.2,21.6c-0.6,0-1-0.4-1-1v-3.5c0-0.6,0.4-1,1-1s1,0.4,1,1v3.5
			C39.2,21.1,38.7,21.6,38.2,21.6z"/>
		<path id="XMLID_87_" class="st4" d="M21.6,28.4c-0.3,0-0.5-0.1-0.7-0.3l-2.5-2.5c-0.4-0.4-0.4-1,0-1.4s1-0.4,1.4,0l2.5,2.5
			c0.4,0.4,0.4,1,0,1.4C22.1,28.3,21.8,28.4,21.6,28.4z"/>
		<path id="XMLID_86_" class="st4" d="M65.2,44.8h-3.5c-0.6,0-1-0.4-1-1s0.4-1,1-1h3.5c0.6,0,1,0.4,1,1S65.7,44.8,65.2,44.8z"/>
		<path id="XMLID_95_" class="st4" d="M54.1,28.2c-0.3,0-0.5-0.1-0.7-0.3c-0.4-0.4-0.4-1,0-1.4l2.5-2.5c0.4-0.4,1-0.4,1.4,0
			s0.4,1,0,1.4l-2.5,2.5C54.6,28.1,54.3,28.2,54.1,28.2z"/>
		<path id="XMLID_96_" class="st4" d="M38.1,38.8c-0.8,0-1.6,0.2-2.2,0.5L23.8,30l9.6,11.9C33.1,42.5,33,43.2,33,44
			c0,2.8,2.3,5.1,5.1,5.1s5.1-2.3,5.1-5.1S40.9,38.8,38.1,38.8z M38.1,47c-1.7,0-3.1-1.4-3.1-3.1s1.4-3.1,3.1-3.1s3.1,1.4,3.1,3.1
			S39.8,47,38.1,47z"/>
		<g id="XMLID_51_">
			<path id="XMLID_70_" class="st4" d="M67,53.6c1-3,1.5-6.2,1.5-9.5c0-16.9-13.7-30.7-30.6-30.7c-13.3,0-25,8.5-29.1,21
				c-0.2,0.5,0.1,1.1,0.6,1.3s1.1-0.1,1.3-0.6c3.8-11.8,14.8-19.7,27.2-19.7c15.8,0,28.6,12.9,28.6,28.6c0,3-0.5,5.9-1.4,8.7
				c-0.2,0-0.4-0.1-0.6-0.1c-2.3,0-4.1,1.8-4.1,4.1s1.8,4.1,4.1,4.1c2.3,0,4.1-1.8,4.1-4.1C68.6,55.5,68,54.3,67,53.6z"/>
			<path id="XMLID_89_" class="st4" d="M15.9,40.8c0.6,0,1-0.4,1-1s-0.4-1-1-1H8c-0.6,0-1,0.4-1,1v12.3c0,0.6,0.4,1,1,1h7.9
				c0.6,0,1-0.4,1-1s-0.4-1-1-1H9v-4.5h4c0.6,0,1-0.4,1-1s-0.4-1-1-1H9v-3.8H15.9z"/>
		</g>
	</g>
</g>
</svg>
