<?xml version="1.0" encoding="utf-8"?>
<!-- Generator: Adobe Illustrator 19.0.0, SVG Export Plug-In . SVG Version: 6.00 Build 0)  -->
<svg version="1.1" id="Layer_1" xmlns="http://www.w3.org/2000/svg" xmlns:xlink="http://www.w3.org/1999/xlink" x="0px" y="0px"
	 viewBox="0 0 76.6 76.6" style="enable-background:new 0 0 76.6 76.6;" xml:space="preserve">
<style type="text/css">
	.st0{fill:none;}
	.st1{fill:#D1D3D4;}
</style>
<g id="XMLID_84_">
	<rect id="XMLID_30_" x="0" class="st0" width="76.6" height="76.6"/>
	<path id="XMLID_56_" class="st1" d="M58.5,31.6h4.7c1.1,0,2-0.9,2-2V9.4c0-1.1-0.9-2-2-2h-4.7c-1.1,0-2,0.9-2,2v9.1H44.6v-1.4
		c0-0.5-0.5-1-1-1H33.5c-0.6,0-1,0.5-1,1v1.4H21V9.4c0-1.1-0.9-2-2-2h-4.7c-1.1,0-2,0.9-2,2v20.2c0,1.1,0.9,2,2,2H19
		c1.1,0,2-0.9,2-2v-9.1h11.5v1.4c0,0.5,0.5,1,1,1h0.7v6.7c0,1.1,0.9,2,2,2h1.5v20.7c-1.6,0.4-2.8,1.7-3.1,3.4H21v-9.1
		c0-1.1-0.9-2-2-2h-4.7c-1.1,0-2,0.9-2,2v20.2c0,1.1,0.9,2,2,2H19c1.1,0,2-0.9,2-2v-9.1h13.9c0.6,1.6,2.1,2.7,3.8,2.7
		c1.8,0,3.3-1.1,3.8-2.7h14v9.1c0,1.1,0.9,2,2,2h4.7c1.1,0,2-0.9,2-2V46.6c0-1.1-0.9-2-2-2h-4.7c-1.1,0-2,0.9-2,2v9.1H42.8
		c-0.2-1.7-1.5-3-3.1-3.4V31.6h1.2c1.1,0,2-0.9,2-2v-6.7h0.7c0.6,0,1-0.5,1-1v-1.4h11.9v9.1C56.5,30.7,57.4,31.6,58.5,31.6z
		 M58.5,9.4h4.7v20.2l-4.7,0V9.4z M19,19.3c0,0.1,0,0.1,0,0.2s0,0.1,0,0.2v9.9l-4.7,0V9.4H19V19.3z M19,56.7
		C19,56.7,19,56.7,19,56.7C19,56.7,19,56.7,19,56.7v10.1l-4.7,0V46.6H19V56.7z M58.5,46.6h4.7v20.2l-4.7,0V46.6z M40.9,29.6l-4.7,0
		v-6.7h4.7V29.6z"/>
</g>
</svg>
