<?xml version="1.0" encoding="utf-8"?>
<!-- Generator: Adobe Illustrator 19.0.0, SVG Export Plug-In . SVG Version: 6.00 Build 0)  -->
<svg version="1.1" id="Layer_1" xmlns="http://www.w3.org/2000/svg" xmlns:xlink="http://www.w3.org/1999/xlink" x="0px" y="0px"
	 viewBox="0 -0.6 76.6 76.6" style="enable-background:new 0 -0.6 76.6 76.6;" xml:space="preserve">
<style type="text/css">
	.st0{display:none;}
	.st1{display:inline;fill:none;}
	.st2{display:inline;fill:#D1D3D4;}
	.st3{display:inline;fill:#FFFFFF;}
	.st4{fill:none;}
	.st5{fill:#D1D3D4;}
</style>
<g id="Layer_1_1_" class="st0">
	<rect id="XMLID_1_" y="-0.6" class="st1" width="76.6" height="76.6"/>
</g>
<g id="Layer_2" class="st0">
	<path id="XMLID_40_" class="st2" d="M59.2,64H17.4c-0.3,0-0.5-0.1-0.7-0.3c-5.8-5.8-9-13.5-9-21.7c0-16.9,13.7-30.6,30.6-30.6
		S69,25.1,69,42c0,8.2-3.2,15.9-9,21.7C59.7,63.9,59.5,64,59.2,64z M17.8,62h41c5.3-5.4,8.2-12.5,8.2-20c0-15.8-12.9-28.6-28.7-28.6
		S9.7,26.2,9.7,42C9.7,49.6,12.6,56.7,17.8,62z"/>
	<path id="XMLID_39_" class="st2" d="M14.7,42.7h-3.5c-0.6,0-1-0.4-1-1s0.4-1,1-1h3.5c0.6,0,1,0.4,1,1S15.2,42.7,14.7,42.7z"/>
	<path id="XMLID_38_" class="st2" d="M38.6,19.4c-0.6,0-1-0.4-1-1v-3.5c0-0.6,0.4-1,1-1s1,0.4,1,1v3.5
		C39.6,18.9,39.2,19.4,38.6,19.4z"/>
	<path id="XMLID_37_" class="st2" d="M21.8,26c-0.3,0-0.5-0.1-0.7-0.3l-2.5-2.5c-0.4-0.4-0.4-1,0-1.4s1-0.4,1.4,0l2.5,2.5
		c0.4,0.4,0.4,1,0,1.4C22.3,25.9,22,26,21.8,26z"/>
	<path id="XMLID_36_" class="st2" d="M65.5,42.8H62c-0.6,0-1-0.4-1-1s0.4-1,1-1h3.5c0.6,0,1,0.4,1,1S66.1,42.8,65.5,42.8z"/>
	<path id="XMLID_47_" class="st2" d="M54.7,26c-0.3,0-0.5-0.1-0.7-0.3c-0.4-0.4-0.4-1,0-1.4l2.5-2.5c0.4-0.4,1-0.4,1.4,0
		s0.4,1,0,1.4l-2.5,2.5C55.2,25.9,55,26,54.7,26z"/>
	<path id="XMLID_29_" class="st2" d="M50.9,52.3H25.7c-0.8,0-1.5,0.7-1.5,1.5v4.7c0,0.8,0.7,1.5,1.5,1.5h25.2c0.8,0,1.5-0.7,1.5-1.5
		v-4.7C52.4,53,51.8,52.3,50.9,52.3z"/>
	<path id="XMLID_41_" class="st2" d="M52.3,27l-12.5,9.9c-0.4-0.1-0.9-0.2-1.4-0.2c-2.8,0-5.1,2.3-5.1,5.1s2.3,5.1,5.1,5.1
		s5.1-2.3,5.1-5.1c0-1-0.3-1.8-0.7-2.6L52.3,27z M38.5,44.9c-1.7,0-3.1-1.4-3.1-3.1s1.4-3.1,3.1-3.1c1.7,0,3.1,1.4,3.1,3.1
		S40.2,44.9,38.5,44.9z"/>
	<rect id="XMLID_28_" y="-0.6" class="st1" width="76.6" height="76.6"/>
</g>
<g id="Layer_3" class="st0">
	<path id="XMLID_31_" class="st3" d="M35.6,28.8V18.7c0-0.6,0.5-1,1-1h4.7c0.6,0,1,0.5,1,1v10.2c0,0.6-0.5,1-1,1h-4.7
		C36.1,29.8,35.6,29.4,35.6,28.8z"/>
	<rect id="XMLID_30_" y="-0.6" class="st1" width="76.6" height="76.6"/>
	<path id="XMLID_56_" class="st2" d="M58.5,31h4.7c1.1,0,2-0.9,2-2V8.8c0-1.1-0.9-2-2-2h-4.7c-1.1,0-2,0.9-2,2v9.1H44.6v-1.4
		c0-0.5-0.5-1-1-1H33.5c-0.6,0-1,0.5-1,1v1.4H21V8.8c0-1.1-0.9-2-2-2h-4.7c-1.1,0-2,0.9-2,2V29c0,1.1,0.9,2,2,2H19c1.1,0,2-0.9,2-2
		v-9.1h11.5v1.4c0,0.5,0.5,1,1,1h0.7V29c0,1.1,0.9,2,2,2h1.5v20.7c-1.6,0.4-2.8,1.7-3.1,3.4H21V46c0-1.1-0.9-2-2-2h-4.7
		c-1.1,0-2,0.9-2,2v20.2c0,1.1,0.9,2,2,2H19c1.1,0,2-0.9,2-2v-9.1h13.9c0.6,1.6,2.1,2.7,3.8,2.7c1.8,0,3.3-1.1,3.8-2.7h14v9.1
		c0,1.1,0.9,2,2,2h4.7c1.1,0,2-0.9,2-2V46c0-1.1-0.9-2-2-2h-4.7c-1.1,0-2,0.9-2,2v9.1H42.8c-0.2-1.7-1.5-3-3.1-3.4V31h1.2
		c1.1,0,2-0.9,2-2v-6.7h0.7c0.6,0,1-0.5,1-1v-1.4h11.9V29C56.5,30.1,57.4,31,58.5,31z M58.5,8.8h4.7V29h-4.7V8.8z M19,18.7
		c0,0.1,0,0.1,0,0.2s0,0.1,0,0.2V29h-4.7V8.8H19V18.7z M19,56.1L19,56.1L19,56.1v10.1h-4.7V46H19V56.1z M58.5,46h4.7v20.2h-4.7V46z
		 M40.9,29h-4.7v-6.7h4.7V29z"/>
</g>
<g id="Layer_4" class="st0">
	<rect id="XMLID_33_" x="-0.1" y="-0.6" class="st1" width="76.6" height="76.6"/>
	<path id="XMLID_58_" class="st2" d="M66.9,25H59c-0.6,0-1,0.4-1,1v4.6h-3.8l-7.5-7.5c-0.2-0.2-0.4-0.3-0.7-0.3h-8.3v-4.3h9.9
		c0.6,0,1-0.4,1-1s-0.4-1-1-1H25.7c-0.6,0-1,0.4-1,1s0.4,1,1,1h9.9v4.3h-6.5c-0.3,0-0.5,0.1-0.7,0.3l-7.5,7.5h-4.5c-0.6,0-1,0.4-1,1
		v9h-4.9V25.4c0-0.6-0.4-1-1-1s-1,0.4-1,1v32.5c0,0.6,0.4,1,1,1s1-0.4,1-1V42.6h4.9V51c0,0.6,0.4,1,1,1h9.3l5.3,6.1
		c0.2,0.2,0.5,0.3,0.8,0.3h16.4c0.3,0,0.5-0.1,0.7-0.3L55,52h2.9v2.1c0,0.6,0.4,1,1,1h7.9c0.6,0,1-0.4,1-1V26
		C67.9,25.4,67.4,25,66.9,25z M65.9,53.1H60V51c0-0.6-0.4-1-1-1h-4.4c-0.3,0-0.5,0.1-0.7,0.3l-6.1,6.1H32.3l-5.3-6
		c-0.2-0.2-0.5-0.3-0.8-0.3h-8.8V32.6h3.9c0.3,0,0.5-0.1,0.7-0.3l7.5-7.5h15.9l7.5,7.5c0.2,0.2,0.4,0.3,0.7,0.3h5.2c0.6,0,1-0.4,1-1
		V27h5.9v26.1H65.9z"/>
</g>
<g>
	<rect id="XMLID_34_" x="0" y="-0.6" class="st4" width="76.6" height="76.6"/>
	<path class="st5" d="M67,25H59c-0.6,0-1,0.4-1,1v4.6h-3.8l-7.5-7.5c-0.2-0.2-0.4-0.3-0.7-0.3h-8.3v-4.3h9.9c0.6,0,1-0.4,1-1
		s-0.4-1-1-1H25.8c-0.6,0-1,0.4-1,1s0.4,1,1,1h9.9v4.3h-6.5c-0.3,0-0.5,0.1-0.7,0.3L21,30.6h-4.5c-0.6,0-1,0.4-1,1v9h-4.9V25.4
		c0-0.6-0.4-1-1-1s-1,0.4-1,1v32.5c0,0.6,0.4,1,1,1s1-0.4,1-1V42.6h4.9V51c0,0.6,0.4,1,1,1h9.3l5.3,6.1c0.2,0.2,0.5,0.3,0.8,0.3
		h16.4c0.3,0,0.5-0.1,0.7-0.3l6.1-6.1H58v2.1c0,0.6,0.4,1,1,1H67c0.6,0,1-0.4,1-1V26C68,25.4,67.5,25,67,25z M66,53.1H60V51
		c0-0.6-0.4-1-1-1h-4.4c-0.3,0-0.5,0.1-0.7,0.3l-6.1,6.1H32.4l-5.3-6.1c-0.2-0.2-0.5-0.3-0.8-0.3h-8.8V32.6h3.9
		c0.3,0,0.5-0.1,0.7-0.3l7.5-7.5h15.9l7.5,7.5c0.2,0.2,0.4,0.3,0.7,0.3H59c0.6,0,1-0.4,1-1V27H66V53.1z"/>
</g>
</svg>
