<?xml version="1.0" encoding="utf-8"?>
<!-- Generator: Adobe Illustrator 19.0.0, SVG Export Plug-In . SVG Version: 6.00 Build 0)  -->
<svg version="1.1" xmlns="http://www.w3.org/2000/svg" xmlns:xlink="http://www.w3.org/1999/xlink" x="0px" y="0px"
	 viewBox="0 0 76.6 76.6" style="enable-background:new 0 0 76.6 76.6;" xml:space="preserve">
<style type="text/css">
	.st0{display:none;}
	.st1{display:inline;fill:none;}
	.st2{display:inline;fill:#D1D3D4;}
	.st3{display:inline;fill:#FFFFFF;}
	.st4{display:inline;}
	.st5{fill:#D1D3D4;}
	.st6{fill:none;}
</style>
<g id="Layer_1" class="st0">
	<rect id="XMLID_1_" x="0" y="0" class="st1" width="76.6" height="76.6"/>
</g>
<g id="Layer_2" class="st0">
	<path id="XMLID_40_" class="st2" d="M59.2,64.6H17.4c-0.3,0-0.5-0.1-0.7-0.3c-5.8-5.8-9-13.5-9-21.7C7.7,25.7,21.4,12,38.3,12
		C55.2,12,69,25.7,69,42.6c0,8.2-3.2,15.9-9,21.7C59.7,64.5,59.5,64.6,59.2,64.6z M17.8,62.6h41c5.3-5.4,8.2-12.5,8.2-20
		C67,26.8,54.1,14,38.3,14C22.5,14,9.7,26.8,9.7,42.6C9.7,50.2,12.6,57.3,17.8,62.6z"/>
	<path id="XMLID_39_" class="st2" d="M14.7,43.3h-3.5c-0.6,0-1-0.4-1-1s0.4-1,1-1h3.5c0.6,0,1,0.4,1,1S15.2,43.3,14.7,43.3z"/>
	<path id="XMLID_38_" class="st2" d="M38.6,20c-0.6,0-1-0.4-1-1v-3.5c0-0.6,0.4-1,1-1s1,0.4,1,1V19C39.6,19.5,39.2,20,38.6,20z"/>
	<path id="XMLID_37_" class="st2" d="M21.8,26.6c-0.3,0-0.5-0.1-0.7-0.3l-2.5-2.5c-0.4-0.4-0.4-1,0-1.4c0.4-0.4,1-0.4,1.4,0l2.5,2.5
		c0.4,0.4,0.4,1,0,1.4C22.3,26.5,22,26.6,21.8,26.6z"/>
	<path id="XMLID_36_" class="st2" d="M65.5,43.4H62c-0.6,0-1-0.4-1-1s0.4-1,1-1h3.5c0.6,0,1,0.4,1,1S66.1,43.4,65.5,43.4z"/>
	<path id="XMLID_47_" class="st2" d="M54.7,26.6c-0.3,0-0.5-0.1-0.7-0.3c-0.4-0.4-0.4-1,0-1.4l2.5-2.5c0.4-0.4,1-0.4,1.4,0
		s0.4,1,0,1.4l-2.5,2.5C55.2,26.5,55,26.6,54.7,26.6z"/>
	<path id="XMLID_29_" class="st2" d="M50.9,52.9H25.7c-0.8,0-1.5,0.7-1.5,1.5v4.7c0,0.8,0.7,1.5,1.5,1.5h25.2c0.8,0,1.5-0.7,1.5-1.5
		v-4.7C52.4,53.6,51.8,52.9,50.9,52.9z"/>
	<path id="XMLID_41_" class="st2" d="M52.3,27.6l-12.5,9.9c-0.4-0.1-0.9-0.2-1.4-0.2c-2.8,0-5.1,2.3-5.1,5.1s2.3,5.1,5.1,5.1
		s5.1-2.3,5.1-5.1c0-1-0.3-1.8-0.7-2.6L52.3,27.6z M38.5,45.5c-1.7,0-3.1-1.4-3.1-3.1s1.4-3.1,3.1-3.1c1.7,0,3.1,1.4,3.1,3.1
		S40.2,45.5,38.5,45.5z"/>
	<rect id="XMLID_28_" x="0" y="0" class="st1" width="76.6" height="76.6"/>
</g>
<g id="Layer_3" class="st0">
	<path id="XMLID_31_" class="st3" d="M35.6,29.4V19.3c0-0.6,0.5-1,1-1h4.7c0.6,0,1,0.5,1,1v10.2c0,0.6-0.5,1-1,1h-4.7
		C36.1,30.4,35.6,30,35.6,29.4z"/>
	<rect id="XMLID_30_" x="0" y="0" class="st1" width="76.6" height="76.6"/>
	<path id="XMLID_56_" class="st2" d="M58.5,31.6h4.7c1.1,0,2-0.9,2-2V9.4c0-1.1-0.9-2-2-2h-4.7c-1.1,0-2,0.9-2,2v9.1H44.6v-1.4
		c0-0.5-0.5-1-1-1H33.5c-0.6,0-1,0.5-1,1v1.4H21V9.4c0-1.1-0.9-2-2-2h-4.7c-1.1,0-2,0.9-2,2v20.2c0,1.1,0.9,2,2,2H19
		c1.1,0,2-0.9,2-2v-9.1h11.5v1.4c0,0.5,0.5,1,1,1h0.7v6.7c0,1.1,0.9,2,2,2h1.5v20.7c-1.6,0.4-2.8,1.7-3.1,3.4H21v-9.1
		c0-1.1-0.9-2-2-2h-4.7c-1.1,0-2,0.9-2,2v20.2c0,1.1,0.9,2,2,2H19c1.1,0,2-0.9,2-2v-9.1h13.9c0.6,1.6,2.1,2.7,3.8,2.7
		c1.8,0,3.3-1.1,3.8-2.7h14v9.1c0,1.1,0.9,2,2,2h4.7c1.1,0,2-0.9,2-2V46.6c0-1.1-0.9-2-2-2h-4.7c-1.1,0-2,0.9-2,2v9.1H42.8
		c-0.2-1.7-1.5-3-3.1-3.4V31.6h1.2c1.1,0,2-0.9,2-2v-6.7h0.7c0.6,0,1-0.5,1-1v-1.4h11.9v9.1C56.5,30.7,57.4,31.6,58.5,31.6z
		 M58.5,9.4h4.7v20.2l-4.7,0V9.4z M19,19.3c0,0.1,0,0.1,0,0.2s0,0.1,0,0.2v9.9l-4.7,0V9.4H19V19.3z M19,56.7
		C19,56.7,19,56.7,19,56.7C19,56.7,19,56.7,19,56.7v10.1l-4.7,0V46.6H19V56.7z M58.5,46.6h4.7v20.2l-4.7,0V46.6z M40.9,29.6l-4.7,0
		v-6.7h4.7V29.6z"/>
</g>
<g id="Layer_4" class="st0">
	<rect id="XMLID_33_" x="-0.1" y="0" class="st1" width="76.6" height="76.6"/>
	<path id="XMLID_58_" class="st2" d="M66.9,25.6h-7.9c-0.6,0-1,0.4-1,1v4.6h-3.8l-7.5-7.5c-0.2-0.2-0.4-0.3-0.7-0.3h-8.3v-4.3h9.9
		c0.6,0,1-0.4,1-1s-0.4-1-1-1H25.7c-0.6,0-1,0.4-1,1s0.4,1,1,1h9.9v4.3h-6.5c-0.3,0-0.5,0.1-0.7,0.3l-7.5,7.5h-4.5c-0.6,0-1,0.4-1,1
		v9h-4.9V26c0-0.6-0.4-1-1-1s-1,0.4-1,1v32.5c0,0.6,0.4,1,1,1s1-0.4,1-1V43.2h4.9v8.4c0,0.6,0.4,1,1,1h9.3l5.3,6.1
		c0.2,0.2,0.5,0.3,0.8,0.3h16.4c0.3,0,0.5-0.1,0.7-0.3l6.1-6.1h2.9v2.1c0,0.6,0.4,1,1,1h7.9c0.6,0,1-0.4,1-1V26.6
		C67.9,26,67.4,25.6,66.9,25.6z M65.9,53.7h-5.9v-2.1c0-0.6-0.4-1-1-1h-4.4c-0.3,0-0.5,0.1-0.7,0.3l-6.1,6.1H32.3L27,51
		c-0.2-0.2-0.5-0.3-0.8-0.3h-8.8V33.2h3.9c0.3,0,0.5-0.1,0.7-0.3l7.5-7.5h15.9l7.5,7.5c0.2,0.2,0.4,0.3,0.7,0.3h5.2c0.6,0,1-0.4,1-1
		v-4.6h5.9V53.7z"/>
</g>
<g id="Layer_5" class="st0">
	<g id="XMLID_43_" class="st4">
		<path id="XMLID_60_" class="st5" d="M68.1,54.9V37.6c0-0.6-0.4-1-1-1H49V17.7c2.2-0.5,3.9-2.5,3.9-4.8c0-2.7-2.2-4.9-4.9-4.9
			c-2.7,0-4.9,2.2-4.9,4.9c0,2.4,1.7,4.4,3.9,4.8v18.9H29.7V17.7c2.2-0.5,3.9-2.5,3.9-4.8c0-2.7-2.2-4.9-4.9-4.9s-4.9,2.2-4.9,4.9
			c0,2.4,1.7,4.4,3.9,4.8v18.9H10.4V17.7c2.2-0.5,3.9-2.5,3.9-4.8c0-2.7-2.2-4.9-4.9-4.9s-4.9,2.2-4.9,4.9c0,2.4,1.7,4.4,3.9,4.8
			v41.3c-2.2,0.5-3.9,2.5-3.9,4.8c0,2.7,2.2,4.9,4.9,4.9s4.9-2.2,4.9-4.9c0-2.4-1.7-4.4-3.9-4.8V38.6h17.3v20.4
			c-2.2,0.5-3.9,2.5-3.9,4.8c0,2.7,2.2,4.9,4.9,4.9s4.9-2.2,4.9-4.9c0-2.4-1.7-4.4-3.9-4.8V38.6H47v20.4c-2.2,0.5-3.9,2.5-3.9,4.8
			c0,2.7,2.2,4.9,4.9,4.9c2.7,0,4.9-2.2,4.9-4.9c0-2.4-1.7-4.4-3.9-4.8V38.6h17.1V55c-1.6,0.5-2.8,2-2.8,3.7c0,2.2,1.8,3.9,3.9,3.9
			c2.2,0,3.9-1.8,3.9-3.9C71.2,56.9,69.9,55.3,68.1,54.9z M12.3,63.8c0,1.6-1.3,2.9-2.9,2.9s-2.9-1.3-2.9-2.9c0-1.6,1.3-2.9,2.9-2.9
			S12.3,62.1,12.3,63.8z M9.4,15.8c-1.6,0-2.9-1.3-2.9-2.9s1.3-2.9,2.9-2.9s2.9,1.3,2.9,2.9S11,15.8,9.4,15.8z M31.6,63.8
			c0,1.6-1.3,2.9-2.9,2.9s-2.9-1.3-2.9-2.9c0-1.6,1.3-2.9,2.9-2.9S31.6,62.1,31.6,63.8z M28.7,15.8c-1.6,0-2.9-1.3-2.9-2.9
			s1.3-2.9,2.9-2.9s2.9,1.3,2.9,2.9S30.3,15.8,28.7,15.8z M51,63.8c0,1.6-1.3,2.9-2.9,2.9c-1.6,0-2.9-1.3-2.9-2.9
			c0-1.6,1.3-2.9,2.9-2.9C49.6,60.8,51,62.1,51,63.8z M48,15.8c-1.6,0-2.9-1.3-2.9-2.9s1.3-2.9,2.9-2.9c1.6,0,2.9,1.3,2.9,2.9
			S49.6,15.8,48,15.8z"/>
		<path id="XMLID_79_" class="st5" d="M59.4,33.8c0.6,0,1-0.4,1-1v-4.5l3,0c0,0,0.2,0,0.3,0c0,0.2,2.7,5,2.7,5
			c0.2,0.3,0.5,0.5,0.9,0.5c0.2,0,0.3,0,0.5-0.1c0.5-0.3,0.6-0.9,0.4-1.4l-2.5-4.4c0.4-0.2,0.8-0.4,1.2-0.8c0.8-0.7,1.1-1.7,1.1-2.9
			c0-1.4-0.4-2.3-1.1-3c-0.8-0.8-2.6-0.8-2.6-0.8h-4.8c-0.6,0-1,0.4-1,1v11.3C58.4,33.3,58.9,33.8,59.4,33.8z M60.4,22.5h3.9
			c0.1,0,0.8,0,1.2,0.3c0.4,0.3,0.5,1,0.5,1.5c0,0.6-0.2,1.1-0.5,1.4c-0.6,0.5-1.6,0.6-2,0.6h-3.1V22.5z"/>
	</g>
	<rect id="XMLID_34_" x="0" class="st1" width="76.6" height="76.6"/>
</g>
<g id="Layer_6">
	<path id="XMLID_72_" class="st5" d="M67.8,65.3H54.7c0-0.1,0-0.1,0-0.2v-31c1.8,0.2,2.1,1.6,2.1,1.9v16.2c0,1.7,1.1,3,2.5,3h1.5
		c1.4,0,2.5-1.3,2.5-3V23.7c0-1.9-1.3-3.9-3.7-3.9c0,0,0,0,0,0c-0.7-0.4-1.7-0.6-3.1-0.1c-0.3,0.1-0.4,0.4-0.3,0.6
		c0.1,0.3,0.4,0.4,0.6,0.3c0.8-0.3,1.3-0.3,1.8-0.2c0,0.1-0.1,0.2-0.1,0.3c0,0.5,0.4,0.9,0.9,1l0,0.1c0,0.5,0,1.2,0.5,1.8
		c0.3,0.3,0.7,0.5,1.3,0.5v28.1c0,0.6-0.3,1-0.5,1h-1.5c-0.1,0-0.5-0.4-0.5-1l0-16.3c-0.1-1.3-1.1-3.6-4.1-3.8v-1.8c0-1.7-1.3-3-3-3
		H23.3c-1.7,0-3,1.3-3,3v34.8c0,0.1,0,0.1,0,0.2H8.6c-0.6,0-1,0.4-1,1s0.4,1,1,1h59.2c0.6,0,1-0.4,1-1S68.4,65.3,67.8,65.3z
		 M60.6,22.9c-0.2-0.2-0.2-0.5-0.2-0.8c0.4,0.3,0.6,0.7,0.7,1C60.9,23.1,60.7,23,60.6,22.9z M22.3,65.1V30.4c0-0.6,0.4-1,1-1h28.5
		c0.6,0,1,0.4,1,1v34.8c0,0.1,0,0.1,0,0.2H22.2C22.3,65.2,22.3,65.2,22.3,65.1z"/>
	<path id="XMLID_74_" class="st5" d="M53.5,25.1H22.3c-1.1,0-2-0.9-2-2V11.3c0-1.1,0.9-2,2-2h31.3c1.1,0,2,0.9,2,2v11.7
		C55.5,24.2,54.6,25.1,53.5,25.1z M53.5,23.1v1V23.1L53.5,23.1L53.5,23.1z M22.3,11.3l0,11.7h31.2l0-11.7H22.3z"/>
	<path id="XMLID_52_" class="st5" d="M48.1,32.1H26.9c-0.8,0-1.5,0.7-1.5,1.5v4.7c0,0.8,0.7,1.5,1.5,1.5h21.2c0.8,0,1.5-0.7,1.5-1.5
		v-4.7C49.6,32.8,48.9,32.1,48.1,32.1z"/>
	<rect id="XMLID_59_" x="-0.1" y="0" class="st6" width="76.6" height="76.6"/>
</g>
</svg>
