<?xml version="1.0" encoding="utf-8"?>
<!-- Generator: Adobe Illustrator 19.0.0, SVG Export Plug-In . SVG Version: 6.00 Build 0)  -->
<svg version="1.1" xmlns="http://www.w3.org/2000/svg" xmlns:xlink="http://www.w3.org/1999/xlink" x="0px" y="0px"
	 viewBox="0 0 76.6 76.6" style="enable-background:new 0 0 76.6 76.6;" xml:space="preserve">
<style type="text/css">
	.st0{display:none;}
	.st1{display:inline;fill:none;}
	.st2{fill:#D1D3D4;}
	.st3{fill:none;}
</style>
<g id="Layer_1" class="st0">
	<rect id="XMLID_1_" x="0" y="0" class="st1" width="76.6" height="76.6"/>
</g>
<g id="Layer_2">
	<path id="XMLID_40_" class="st2" d="M59.2,64.6H17.4c-0.3,0-0.5-0.1-0.7-0.3c-5.8-5.8-9-13.5-9-21.7C7.7,25.7,21.4,12,38.3,12
		C55.2,12,69,25.7,69,42.6c0,8.2-3.2,15.9-9,21.7C59.7,64.5,59.5,64.6,59.2,64.6z M17.8,62.6h41c5.3-5.4,8.2-12.5,8.2-20
		C67,26.8,54.1,14,38.3,14C22.5,14,9.7,26.8,9.7,42.6C9.7,50.2,12.6,57.3,17.8,62.6z"/>
	<path id="XMLID_39_" class="st2" d="M14.7,43.3h-3.5c-0.6,0-1-0.4-1-1s0.4-1,1-1h3.5c0.6,0,1,0.4,1,1S15.2,43.3,14.7,43.3z"/>
	<path id="XMLID_38_" class="st2" d="M38.6,20c-0.6,0-1-0.4-1-1v-3.5c0-0.6,0.4-1,1-1s1,0.4,1,1V19C39.6,19.5,39.2,20,38.6,20z"/>
	<path id="XMLID_37_" class="st2" d="M21.8,26.6c-0.3,0-0.5-0.1-0.7-0.3l-2.5-2.5c-0.4-0.4-0.4-1,0-1.4c0.4-0.4,1-0.4,1.4,0l2.5,2.5
		c0.4,0.4,0.4,1,0,1.4C22.3,26.5,22,26.6,21.8,26.6z"/>
	<path id="XMLID_36_" class="st2" d="M65.5,43.4H62c-0.6,0-1-0.4-1-1s0.4-1,1-1h3.5c0.6,0,1,0.4,1,1S66.1,43.4,65.5,43.4z"/>
	<path id="XMLID_47_" class="st2" d="M54.7,26.6c-0.3,0-0.5-0.1-0.7-0.3c-0.4-0.4-0.4-1,0-1.4l2.5-2.5c0.4-0.4,1-0.4,1.4,0
		s0.4,1,0,1.4l-2.5,2.5C55.2,26.5,55,26.6,54.7,26.6z"/>
	<path id="XMLID_29_" class="st2" d="M50.9,52.9H25.7c-0.8,0-1.5,0.7-1.5,1.5v4.7c0,0.8,0.7,1.5,1.5,1.5h25.2c0.8,0,1.5-0.7,1.5-1.5
		v-4.7C52.4,53.6,51.8,52.9,50.9,52.9z"/>
	<path id="XMLID_41_" class="st2" d="M52.3,27.6l-12.5,9.9c-0.4-0.1-0.9-0.2-1.4-0.2c-2.8,0-5.1,2.3-5.1,5.1s2.3,5.1,5.1,5.1
		s5.1-2.3,5.1-5.1c0-1-0.3-1.8-0.7-2.6L52.3,27.6z M38.5,45.5c-1.7,0-3.1-1.4-3.1-3.1s1.4-3.1,3.1-3.1c1.7,0,3.1,1.4,3.1,3.1
		S40.2,45.5,38.5,45.5z"/>
	<rect id="XMLID_28_" x="0" y="0" class="st3" width="76.6" height="76.6"/>
</g>
</svg>
