<?xml version="1.0" encoding="utf-8"?>
<!-- Generator: Adobe Illustrator 19.0.0, SVG Export Plug-In . SVG Version: 6.00 Build 0)  -->
<svg version="1.1" id="Layer_1" xmlns="http://www.w3.org/2000/svg" xmlns:xlink="http://www.w3.org/1999/xlink" x="0px" y="0px"
	 viewBox="0 0 76.6 76.6" style="enable-background:new 0 0 76.6 76.6;" xml:space="preserve">
<style type="text/css">
	.st0{fill:#D1D3D4;}
	.st1{fill:none;}
</style>
<g id="XMLID_83_">
	<g id="XMLID_43_">
		<path id="XMLID_60_" class="st0" d="M68.1,54.9V37.6c0-0.6-0.4-1-1-1H49V17.7c2.2-0.5,3.9-2.5,3.9-4.8c0-2.7-2.2-4.9-4.9-4.9
			c-2.7,0-4.9,2.2-4.9,4.9c0,2.4,1.7,4.4,3.9,4.8v18.9H29.7V17.7c2.2-0.5,3.9-2.5,3.9-4.8c0-2.7-2.2-4.9-4.9-4.9s-4.9,2.2-4.9,4.9
			c0,2.4,1.7,4.4,3.9,4.8v18.9H10.4V17.7c2.2-0.5,3.9-2.5,3.9-4.8c0-2.7-2.2-4.9-4.9-4.9s-4.9,2.2-4.9,4.9c0,2.4,1.7,4.4,3.9,4.8
			v41.3c-2.2,0.5-3.9,2.5-3.9,4.8c0,2.7,2.2,4.9,4.9,4.9s4.9-2.2,4.9-4.9c0-2.4-1.7-4.4-3.9-4.8V38.6h17.3v20.4
			c-2.2,0.5-3.9,2.5-3.9,4.8c0,2.7,2.2,4.9,4.9,4.9s4.9-2.2,4.9-4.9c0-2.4-1.7-4.4-3.9-4.8V38.6H47v20.4c-2.2,0.5-3.9,2.5-3.9,4.8
			c0,2.7,2.2,4.9,4.9,4.9c2.7,0,4.9-2.2,4.9-4.9c0-2.4-1.7-4.4-3.9-4.8V38.6h17.1V55c-1.6,0.5-2.8,2-2.8,3.7c0,2.2,1.8,3.9,3.9,3.9
			c2.2,0,3.9-1.8,3.9-3.9C71.2,56.9,69.9,55.3,68.1,54.9z M12.3,63.8c0,1.6-1.3,2.9-2.9,2.9s-2.9-1.3-2.9-2.9c0-1.6,1.3-2.9,2.9-2.9
			S12.3,62.1,12.3,63.8z M9.4,15.8c-1.6,0-2.9-1.3-2.9-2.9s1.3-2.9,2.9-2.9s2.9,1.3,2.9,2.9S11,15.8,9.4,15.8z M31.6,63.8
			c0,1.6-1.3,2.9-2.9,2.9s-2.9-1.3-2.9-2.9c0-1.6,1.3-2.9,2.9-2.9S31.6,62.1,31.6,63.8z M28.7,15.8c-1.6,0-2.9-1.3-2.9-2.9
			s1.3-2.9,2.9-2.9s2.9,1.3,2.9,2.9S30.3,15.8,28.7,15.8z M51,63.8c0,1.6-1.3,2.9-2.9,2.9c-1.6,0-2.9-1.3-2.9-2.9
			c0-1.6,1.3-2.9,2.9-2.9C49.6,60.8,51,62.1,51,63.8z M48,15.8c-1.6,0-2.9-1.3-2.9-2.9s1.3-2.9,2.9-2.9c1.6,0,2.9,1.3,2.9,2.9
			S49.6,15.8,48,15.8z"/>
		<path id="XMLID_79_" class="st0" d="M59.4,33.8c0.6,0,1-0.4,1-1v-4.5l3,0c0,0,0.2,0,0.3,0c0,0.2,2.7,5,2.7,5
			c0.2,0.3,0.5,0.5,0.9,0.5c0.2,0,0.3,0,0.5-0.1c0.5-0.3,0.6-0.9,0.4-1.4l-2.5-4.4c0.4-0.2,0.8-0.4,1.2-0.8c0.8-0.7,1.1-1.7,1.1-2.9
			c0-1.4-0.4-2.3-1.1-3c-0.8-0.8-2.6-0.8-2.6-0.8h-4.8c-0.6,0-1,0.4-1,1v11.3C58.4,33.3,58.9,33.8,59.4,33.8z M60.4,22.5h3.9
			c0.1,0,0.8,0,1.2,0.3c0.4,0.3,0.5,1,0.5,1.5c0,0.6-0.2,1.1-0.5,1.4c-0.6,0.5-1.6,0.6-2,0.6h-3.1V22.5z"/>
	</g>
	<rect id="XMLID_34_" class="st1" width="76.6" height="76.6"/>
</g>
</svg>
